<?xml version="1.0" encoding="UTF-8" standalone="no"?>
<!DOCTYPE svg PUBLIC "-//W3C//DTD SVG 1.1//EN" "http://www.w3.org/Graphics/SVG/1.1/DTD/svg11.dtd">
<svg width="100%" height="100%" viewBox="0 0 2098 333" version="1.1" xmlns="http://www.w3.org/2000/svg" xmlns:xlink="http://www.w3.org/1999/xlink" xml:space="preserve" xmlns:serif="http://www.serif.com/" style="fill-rule:evenodd;clip-rule:evenodd;stroke-linejoin:round;stroke-miterlimit:2;">
    <g transform="matrix(1,0,0,1,-757.832168,-2932.58042)">
        <g transform="matrix(0.992605,0,0,0.992605,265.104574,1821.067128)">
            <g transform="matrix(1.00745,0,0,1.00745,-600.453147,122.574077)">
                <g transform="matrix(1,0,0,1.02,0,-25.337226)">
                    <g transform="matrix(400,0,0,400,1065.693431,1266.861292)">
                    </g>
                    <text x="1065.693px" y="1266.861px" style="font-family:'BritannicBold', 'Britannic Bold', sans-serif;font-size:400px;fill:rgb(6,20,44);">R<tspan x="1320.428px 1585.904px 1826.772px 2032.092px " y="1266.861px 1266.861px 1266.861px 1266.861px ">HPL;</tspan></text>
                </g>
                <g transform="matrix(1.08,0,0,1.02,-171.852349,-25.337226)">
                    <g transform="matrix(400,0,0,400,3124.298118,1266.861292)">
                    </g>
                    <text x="2148.154px" y="1266.861px" style="font-family:'BritannicBold', 'Britannic Bold', sans-serif;font-size:400px;fill:rgb(255,130,28);stroke:rgb(181,103,13);stroke-width:0.95px;">2<tspan x="2394.295px 2636.836px 2879.376px " y="1266.861px 1266.861px 1266.861px ">026</tspan></text>
                </g>
            </g>
            <g transform="matrix(1.00745,0,0,1.00745,-992.04973,-879.415213)">
                <g transform="matrix(1.08,0,0,1.02,-167.305403,-45.197324)">
                    <g transform="matrix(95.833333,0,0,95.833333,2204.019039,2259.866181)">
                    </g>
                    <text x="2091.318px" y="2259.866px" style="font-family:'BritannicBold', 'Britannic Bold', sans-serif;font-size:95.833px;fill:rgb(6,46,77);stroke:rgb(181,103,13);stroke-width:0.95px;">&lt;<tspan x="2133.303px 2162.513px " y="2259.866px 2259.866px "> &gt;</tspan></text>
                </g>
            </g>
        </g>
    </g>
</svg>
