<?xml version="1.0" encoding="UTF-8"?>
<svg version="1.1" xmlns="http://www.w3.org/2000/svg" width="1382" height="752">
<path d="M0 0 C456.06 0 912.12 0 1382 0 C1382 248.16 1382 496.32 1382 752 C925.94 752 469.88 752 0 752 C0 503.84 0 255.68 0 0 Z " fill="#FEFEFE" transform="translate(0,0)"/>
<path d="M0 0 C166.32189027 0 166.32189027 0 194.265625 27.10546875 C207.89294741 41.5309629 209.56488335 57.00939952 209.33984375 75.94921875 C208.83357105 91.87054983 201.93975433 103.94304779 190.5625 114.83984375 C181.40566119 122.5589472 171.09029102 126.89345356 160 131 C158.33119931 131.66130665 156.66360719 132.32573496 155 133 C156.74023438 133.70962891 156.74023438 133.70962891 158.515625 134.43359375 C173.30243194 140.62648104 188.29407895 148.48378938 195 164 C199.95354169 177.57986143 201.1559025 191.97292529 202.87379456 206.22836304 C203.30433988 209.79488756 203.73980676 213.36080896 204.17459106 216.92681885 C204.49399976 219.57524804 204.80296549 222.22474864 205.11108398 224.87451172 C206.49032971 236.47551545 208.57336796 247.18129671 213.125 258 C215.94809322 264.84427966 215.94809322 264.84427966 217 268 C189.61 268 162.22 268 134 268 C126.53484486 244.11150357 125.41023526 222.21838895 124.99145508 197.50170898 C124.94378775 194.74592976 124.88601127 191.9906687 124.81846619 189.23530579 C124.75671919 186.67443314 124.70981189 184.11313832 124.6811676 181.55168152 C124.34564732 168.39151828 121.82786155 156.66990021 112.2578125 147.29296875 C102.07510211 138.61020118 88.79225656 139.71068092 76 139 C76 181.57 76 224.14 76 268 C50.92 268 25.84 268 0 268 C0 179.56 0 91.12 0 0 Z " fill="#08204B" transform="translate(173,226)"/>
<path d="M0 0 C25.08 0 50.16 0 76 0 C76 35.64 76 71.28 76 108 C97.12 108 118.24 108 140 108 C140 72.36 140 36.72 140 0 C165.08 0 190.16 0 216 0 C216 88.44 216 176.88 216 268 C190.92 268 165.84 268 140 268 C140 223.78 140 179.56 140 134 C118.88 134 97.76 134 76 134 C76 178.22 76 222.44 76 268 C50.92 268 25.84 268 0 268 C0 179.56 0 91.12 0 0 Z " fill="#08204B" transform="translate(424,226)"/>
<path d="M0 0 C21.924375 -0.061875 43.84875 -0.12375 66.4375 -0.1875 C73.33068115 -0.21481201 80.2238623 -0.24212402 87.32592773 -0.27026367 C95.81848145 -0.28381348 95.81848145 -0.28381348 99.80873108 -0.28633118 C102.56398865 -0.29090339 105.31881643 -0.30022665 108.07398987 -0.31672668 C136.24722286 -0.47796402 166.78462812 1.20812324 189 21 C189.97453125 21.81984375 189.97453125 21.81984375 190.96875 22.65625 C202.29824766 32.93994788 209.35230102 49.08144536 210.17700195 64.25708008 C210.60650586 88.87569663 210.38119253 111.88604007 192.25732422 130.94116211 C180.97030752 142.23393162 166.97027469 148.19662433 151.85302734 152.47265625 C150.24627115 152.92991493 148.64764459 153.41555822 147.05078125 153.90625 C124.60600406 160.30989542 99.63655389 158 77 158 C77 194.3 77 230.6 77 268 C51.59 268 26.18 268 0 268 C0 179.56 0 91.12 0 0 Z " fill="#0A214C" transform="translate(687,226)"/>
<path d="M0 0 C25.08 0 50.16 0 76 0 C76 79.53 76 159.06 76 241 C111.64 241 147.28 241 184 241 C184 249.91 184 258.82 184 268 C123.28 268 62.56 268 0 268 C0 179.56 0 91.12 0 0 Z " fill="#07204C" transform="translate(926,226)"/>
<path d="M0 0 C8.46746131 6.90378379 12.86846642 14.94203339 14.2421875 25.828125 C14.97777187 38.19459632 14.07982279 49.78482779 11.2421875 61.828125 C11.06042969 62.7871875 10.87867188 63.74625 10.69140625 64.734375 C7.2033946 80.86939488 -4.97974037 95.85749912 -18.6328125 104.703125 C-27.43895269 110.15985395 -38.25352011 116.828125 -48.7578125 116.828125 C-50.66887547 96.31114898 -50.66887547 96.31114898 -47.69287109 90.88720703 C-45.41669685 88.39052075 -42.7156543 86.71054204 -39.87890625 84.90625 C-32.53636502 80.01734895 -28.93441192 70.81894964 -25.7578125 62.828125 C-26.99144531 62.80685547 -26.99144531 62.80685547 -28.25 62.78515625 C-37.68157949 62.38219038 -45.44657703 60.69368636 -52.1328125 53.640625 C-59.70366893 43.48879479 -60.17593561 32.09207411 -58.7578125 19.828125 C-56.55062283 10.54034898 -51.8599745 4.52719245 -44.2578125 -0.984375 C-31.88895439 -6.8595826 -11.72325663 -7.4444419 0 0 Z " fill="#FA8803" transform="translate(1188.7578125,431.171875)"/>
<path d="M0 0 C34.85964912 0 34.85964912 0 45.375 8.5625 C59.30137487 24.05233484 58.84906482 44.46123821 58 64 C57.18845757 77.78085119 52.62424597 91.05451413 42.3125 100.5546875 C29.84941139 110.30590035 15.29476282 107 0 107 C0 71.69 0 36.38 0 0 Z " fill="#FDFDFD" transform="translate(764,251)"/>
<path d="M0 0 C36.76515152 0 36.76515152 0 47.3203125 10.1171875 C56.54398911 20.45628547 58.22248946 32.06509839 58.375 45.4375 C58.43107422 47.25024414 58.43107422 47.25024414 58.48828125 49.09960938 C58.60066117 60.75590398 55.5866472 71.08195534 47.9375 80.06640625 C34.61953439 93.35752112 18.18095556 91 0 91 C0 60.97 0 30.94 0 0 Z " fill="#FCFDFD" transform="translate(249,251)"/>
<path d="M0 0 C1.58264648 -0.02320313 1.58264648 -0.02320313 3.19726562 -0.046875 C13.62037658 0.00443878 22.37260358 2.44460611 29.98046875 9.7890625 C37.28334252 17.68698525 38.27841676 28.25041001 37.91015625 38.58984375 C37.15338536 47.10139051 34.01594296 55.6471745 27.5625 61.5 C15.20818692 69.17744287 2.34458271 69.957372 -11.84765625 68.0390625 C-20.09205909 66.06782694 -26.80596459 61.63712296 -31.40625 54.44140625 C-36.71657185 44.44432307 -37.18932984 31.86417357 -34.59375 20.953125 C-31.79265221 13.49614845 -27.53393406 7.18976788 -20.3762207 3.41210938 C-13.55588014 0.32696185 -7.41442068 -0.1083056 0 0 Z " fill="#FA8802" transform="translate(1165.4375,306.5)"/>
<path d="M0 0 C25.08 0 50.16 0 76 0 C76 79.53 76 159.06 76 241 C111.64 241 147.28 241 184 241 C184 249.91 184 258.82 184 268 C123.28 268 62.56 268 0 268 C0 179.56 0 91.12 0 0 Z M2 1 C2 88.45 2 175.9 2 266 C61.4 266 120.8 266 182 266 C182 258.08 182 250.16 182 242 C146.69 241.67 111.38 241.34 75 241 C74.70892253 182.26952291 74.70892253 182.26952291 74.59570312 157.70898438 C74.56982107 152.09659794 74.5438751 146.48421181 74.51782227 140.87182617 C74.51455958 140.16839519 74.5112969 139.46496422 74.50793535 138.74021715 C74.4551536 127.38062754 74.39876276 116.02105856 74.3410418 104.6614931 C74.28189435 93.00540735 74.22669504 81.34930789 74.17494446 69.69318694 C74.145748 63.14533889 74.11474367 56.5975105 74.07946587 50.04969215 C74.04633428 43.88976827 74.01796808 37.72984102 73.99329376 31.56987762 C73.9833801 29.30632624 73.97170916 27.04278179 73.95816994 24.77924919 C73.93997437 21.69375902 73.92804599 18.60830641 73.91770935 15.52278137 C73.91090556 14.62297273 73.90410177 13.72316409 73.89709181 12.79608852 C73.89559946 11.96753531 73.89410711 11.13898211 73.89256954 10.28532124 C73.88915206 9.57334562 73.88573458 8.86137 73.88221353 8.12781936 C74 6 74 6 75 1 C50.91 1 26.82 1 2 1 Z " fill="#121F3F" transform="translate(926,226)"/>
<path d="M0 0 C0 6.27 0 12.54 0 19 C-6.93 22.96 -13.86 26.92 -21 31 C-16.63075925 34.49997503 -16.63075925 34.49997503 -12.01171875 37.359375 C-11.37451904 37.71483398 -10.73731934 38.07029297 -10.08081055 38.43652344 C-8.89612183 39.08669434 -8.89612183 39.08669434 -7.6875 39.75 C-5.150625 41.1525 -2.61375 42.555 0 44 C0 50.27 0 56.54 0 63 C-4.33441661 61.26623336 -8.39142244 59.31215803 -12.5 57.125 C-13.22179443 56.742229 -13.94358887 56.35945801 -14.68725586 55.96508789 C-24.24329752 50.85512673 -33.617751 45.42024356 -43 40 C-43 34.39 -43 28.78 -43 23 C-41.46472656 22.17757813 -39.92945313 21.35515625 -38.34765625 20.5078125 C-27.7825729 14.82739392 -17.25382102 9.13385063 -7.00415039 2.89697266 C-2.20152996 0 -2.20152996 0 0 0 Z " fill="#0C2249" transform="translate(822,429)"/>
<path d="M0 0 C4.55865341 1.37703485 8.5166527 3.22192175 12.68359375 5.51953125 C13.30218765 5.85997971 13.92078156 6.20042816 14.55812073 6.55119324 C15.85951653 7.26906925 17.15954267 7.98943335 18.45825195 8.7121582 C20.42473656 9.8054043 22.39651911 10.88857791 24.36914062 11.97070312 C27.93886927 13.93670414 31.47143008 15.96108514 35 18 C35.80977295 18.44029541 36.6195459 18.88059082 37.45385742 19.33422852 C39.89992128 20.80260985 41.73561533 22.04521561 42.52075195 24.88061523 C42.69025014 27.07443511 42.61577288 29.12033126 42.4375 31.3125 C42.40591797 32.05306641 42.37433594 32.79363281 42.34179688 33.55664062 C42.25977605 35.37281608 42.13422221 37.18693489 42 39 C41.25540527 39.4125 40.51081055 39.825 39.74365234 40.25 C36.91449032 41.8179166 34.08572015 43.38653691 31.2572937 44.95578003 C30.00635711 45.64974876 28.75532012 46.34353654 27.50418091 47.03713989 C19.39089038 51.53594855 11.30602107 56.07473668 3.30859375 60.77734375 C1 62 1 62 -1 62 C-1 55.73 -1 49.46 -1 43 C5.93 39.04 12.86 35.08 20 31 C15.85191749 27.64210802 15.85191749 27.64210802 11.484375 24.89453125 C10.87335937 24.55099609 10.26234375 24.20746094 9.6328125 23.85351562 C9.01148438 23.50998047 8.39015625 23.16644531 7.75 22.8125 C1.10869565 19.10869565 1.10869565 19.10869565 0 18 C-0.08631874 16.65732587 -0.10706473 15.31025678 -0.09765625 13.96484375 C-0.09443359 13.15595703 -0.09121094 12.34707031 -0.08789062 11.51367188 C-0.07951172 10.66353516 -0.07113281 9.81339844 -0.0625 8.9375 C-0.05798828 8.08349609 -0.05347656 7.22949219 -0.04882812 6.34960938 C-0.03700373 4.23304337 -0.01906769 2.11651315 0 0 Z " fill="#091F48" transform="translate(852,430)"/>
<path d="M0 0 C0.99 0 1.98 0 3 0 C3 42.57 3 85.14 3 129 C-22.08 129 -47.16 129 -73 129 C-72.505 128.01 -72.505 128.01 -72 127 C-36.855 126.505 -36.855 126.505 -1 126 C-0.67 84.42 -0.34 42.84 0 0 Z " fill="#253454" transform="translate(246,365)"/>
<path d="M0 0 C4.98352082 4.42514314 5.77828079 10.41327593 6.328125 16.828125 C6.75957701 27.69002718 4.94491234 37.544655 -2.02734375 46.2109375 C-12.2589454 55.49029108 -24.76608273 55.54993218 -37.70800781 55.14501953 C-42.98420892 54.81118235 -48.74976142 54.02817556 -52.78125 50.39453125 C-53.1834375 49.93433594 -53.585625 49.47414063 -54 49 C-50.87709365 49.48578543 -48.00419641 49.9986012 -45 51 C-41.10822454 51.23392327 -37.21056132 51.18518111 -33.3125 51.1875 C-31.71631836 51.20586914 -31.71631836 51.20586914 -30.08789062 51.22460938 C-24.00186469 51.23588675 -18.83758341 50.70123859 -13 49 C-10 48.875 -10 48.875 -8 49 C-8 48.01 -8 47.02 -8 46 C-7.38382813 45.75894531 -6.76765625 45.51789063 -6.1328125 45.26953125 C-3.49976423 43.70224061 -3.00058928 42.50147319 -1.875 39.6875 C-1.54628906 38.88699219 -1.21757813 38.08648437 -0.87890625 37.26171875 C-0.44384766 36.14216797 -0.44384766 36.14216797 0 35 C1.96551724 30.03448276 1.96551724 30.03448276 3 29 C3.15482163 26.11198118 3.23179909 23.26439514 3.25 20.375 C3.270625 19.57964844 3.29125 18.78429687 3.3125 17.96484375 C3.34855862 12.47491879 2.3213389 8.94811714 0 4 C0 2.68 0 1.36 0 0 Z " fill="#E2933B" transform="translate(1197,320)"/>
<path d="M0 0 C-0.66 1.65 -1.32 3.3 -2 5 C-2.99 5 -3.98 5 -5 5 C-5 5.66 -5 6.32 -5 7 C-5.66 7 -6.32 7 -7 7 C-7.33 7.99 -7.66 8.98 -8 10 C-8.66 10 -9.32 10 -10 10 C-10.33 12.64 -10.66 15.28 -11 18 C-11.66 18 -12.32 18 -13 18 C-12.94746152 21.79273453 -12.85223795 25.58330542 -12.75 29.375 C-12.73582031 30.43589844 -12.72164062 31.49679687 -12.70703125 32.58984375 C-12.45638349 40.76096066 -11.44612856 48.63592212 -5.375 54.5625 C-3.09501855 55.98605136 -3.09501855 55.98605136 -1 57 C-1 57.66 -1 58.32 -1 59 C-7.08925787 57.38813762 -10.01908421 53.09022863 -13.26953125 48.01953125 C-17.92148049 38.73207075 -17.47250075 26.19623102 -15.1171875 16.28515625 C-12.81045334 10.22806954 -7.61784999 0 0 0 Z " fill="#E7943B" transform="translate(1146,431)"/>
<path d="M0 0 C5.99092206 4.70715305 8.10241734 12.71476601 9 20 C9.73088244 32.35436397 8.86899969 43.97125817 6 56 C5.76023437 57.07507813 5.52046875 58.15015625 5.2734375 59.2578125 C4.02934398 64.38457152 2.83694698 68.16305302 -1 72 C-1.25 65.375 -1.25 65.375 1 62 C1.66 62 2.32 62 3 62 C2.98839844 61.36191406 2.97679687 60.72382813 2.96484375 60.06640625 C2.95130859 58.82697266 2.95130859 58.82697266 2.9375 57.5625 C2.92589844 56.73878906 2.91429687 55.91507812 2.90234375 55.06640625 C3 53 3 53 4 52 C4.23287008 50.31816052 4.41264166 48.6287584 4.5625 46.9375 C4.64628906 46.01839844 4.73007813 45.09929687 4.81640625 44.15234375 C4.87699219 43.44207031 4.93757813 42.73179687 5 42 C5.33 42 5.66 42 6 42 C6 32.76 6 23.52 6 14 C5.34 14 4.68 14 4 14 C3.67 11.36 3.34 8.72 3 6 C2.34 6 1.68 6 1 6 C0.67 4.02 0.34 2.04 0 0 Z " fill="#DD9548" transform="translate(1194,437)"/>
<path d="M0 0 C1.58264648 -0.02320313 1.58264648 -0.02320313 3.19726562 -0.046875 C12.26171658 -0.00225001 21.45278269 1.65553111 28.25 8.125 C28.89324219 8.71539062 29.53648438 9.30578125 30.19921875 9.9140625 C31.5625 11.5 31.5625 11.5 31.5625 13.5 C30.9025 13.5 30.2425 13.5 29.5625 13.5 C29.02625 12.7575 28.49 12.015 27.9375 11.25 C24.92242343 7.75885871 21.78476062 6.22045851 17.5625 4.5 C16.30179688 3.95279297 16.30179688 3.95279297 15.015625 3.39453125 C10.0584495 2.11037606 5.28356978 2.28951754 0.1875 2.375 C-0.83472656 2.38402344 -1.85695313 2.39304687 -2.91015625 2.40234375 C-5.41951522 2.4257957 -7.92838336 2.45861645 -10.4375 2.5 C-10.4375 3.16 -10.4375 3.82 -10.4375 4.5 C-11.08976562 4.63535156 -11.74203125 4.77070313 -12.4140625 4.91015625 C-18.41449549 6.38813901 -21.6318131 7.95329322 -25.18359375 13.07421875 C-25.59738281 13.54472656 -26.01117187 14.01523437 -26.4375 14.5 C-27.4275 14.5 -28.4175 14.5 -29.4375 14.5 C-29.4375 15.16 -29.4375 15.82 -29.4375 16.5 C-30.0975 16.5 -30.7575 16.5 -31.4375 16.5 C-29.98061817 11.15809994 -26.64778302 7.87077753 -22.4375 4.5 C-15.15804352 0.44312877 -8.19511678 -0.11970956 0 0 Z " fill="#E69032" transform="translate(1165.4375,306.5)"/>
<path d="M0 0 C0.33 0 0.66 0 1 0 C1.98655327 9.18910325 2.15555531 18.30025201 2.13037109 27.52929688 C2.12496109 29.89199089 2.13037531 32.25449885 2.13671875 34.6171875 C2.13605867 36.13802125 2.13477898 37.65885488 2.1328125 39.1796875 C2.13483673 39.87665741 2.13686096 40.57362732 2.13894653 41.29171753 C2.11986435 45.29647704 1.7694516 49.07021887 1 53 C0.67 53 0.34 53 0 53 C-0.95198314 43.26873724 -1.15623453 33.62756815 -1.13037109 23.8581543 C-1.12493883 21.40993253 -1.1303882 18.96188862 -1.13671875 16.51367188 C-1.13605907 14.9453121 -1.13478018 13.37695243 -1.1328125 11.80859375 C-1.13483673 11.08256454 -1.13686096 10.35653534 -1.13894653 9.60850525 C-1.12340919 6.26417937 -1.03981933 3.19741863 0 0 Z " fill="#101F40" transform="translate(300,402)"/>
<path d="M0 0 C1 2 1 2 0.5 4.125 C-2.48064386 9.83790073 -7.01965936 15.34207083 -13 18 C-13.99 18 -14.98 18 -16 18 C-16 24.93 -16 31.86 -16 39 C-13.03 38.01 -10.06 37.02 -7 36 C-6.01 36 -5.02 36 -4 36 C-4 35.34 -4 34.68 -4 34 C-2.02 34 -0.04 34 2 34 C-1.00385701 36.47251438 -3.84424833 37.87685277 -7.5 39.1875 C-8.4384375 39.53167969 -9.376875 39.87585938 -10.34375 40.23046875 C-13 41 -13 41 -17 41 C-18.91027018 20.49153522 -18.91027018 20.49153522 -15.90283203 14.99462891 C-12.82323664 11.54096748 -8.9179808 9.40988936 -5 7 C-2.98729647 4.75680282 -1.57026471 2.5797206 0 0 Z " fill="#DC8D34" transform="translate(1157,507)"/>
<path d="M0 0 C0.92049717 3.09410437 1.07194066 5.74587214 0.95703125 8.96484375 C0.18566856 24.98135817 0.18566856 24.98135817 5 40 C6.63867966 41.36758347 8.30166891 42.70724052 10 44 C10 44.66 10 45.32 10 46 C4.46115855 43.6074119 1.57947414 39.18243488 -1.05078125 33.8828125 C-3.0851622 28.30995853 -3.29950552 22.7455947 -3.375 16.875 C-3.38901855 16.12299316 -3.40303711 15.37098633 -3.41748047 14.59619141 C-3.37078938 9.13093952 -2.15206401 5.0214827 0 0 Z " fill="#E88A25" transform="translate(1133,323)"/>
<path d="M0 0 C0.33 0 0.66 0 1 0 C1.91705932 37.21497275 1.91705932 37.21497275 -6 55 C-6.97608217 52.07175348 -7.08226668 50.04386724 -7 47 C-5.515 46.505 -5.515 46.505 -4 46 C-4.20625 45.34 -4.4125 44.68 -4.625 44 C-5 41 -5 41 -4.08984375 37.69921875 C-2.45590869 31.51825162 -2.31566455 25.16895288 -1.9375 18.8125 C-1.78284384 16.31882913 -1.62540204 13.82532907 -1.46484375 11.33203125 C-1.399021 10.23608643 -1.33319824 9.1401416 -1.26538086 8.01098633 C-1.02392407 5.27144023 -0.60004567 2.68107496 0 0 Z " fill="#172340" transform="translate(896,287)"/>
<path d="M0 0 C3.1187849 5.05260226 2.33427948 10.76712411 2.31567383 16.51489258 C2.31254731 18.53198017 2.33586655 20.54755029 2.36132812 22.56445312 C2.36527242 30.52010472 1.60853439 37.46653688 -1 45 C-1.99 45 -2.98 45 -4 45 C-3.80083984 44.07380859 -3.80083984 44.07380859 -3.59765625 43.12890625 C-3.42105469 42.28199219 -3.24445312 41.43507813 -3.0625 40.5625 C-2.88847656 39.73878906 -2.71445312 38.91507812 -2.53515625 38.06640625 C-1.0513284 29.56418095 -0.72831212 21.05221326 -0.4375 12.4375 C-0.39431641 11.23802734 -0.35113281 10.03855469 -0.30664062 8.80273438 C-0.20143198 5.86858207 -0.09929117 2.9343575 0 0 Z " fill="#142140" transform="translate(822,289)"/>
<path d="M0 0 C1.20527344 0.00322266 2.41054687 0.00644531 3.65234375 0.00976562 C4.90660156 0.01814453 6.16085937 0.02652344 7.453125 0.03515625 C9.35771484 0.04192383 9.35771484 0.04192383 11.30078125 0.04882812 C14.43494336 0.06061069 17.56901041 0.07706209 20.703125 0.09765625 C20.703125 0.75765625 20.703125 1.41765625 20.703125 2.09765625 C22.353125 2.09765625 24.003125 2.09765625 25.703125 2.09765625 C26.363125 3.41765625 27.023125 4.73765625 27.703125 6.09765625 C26.47722656 5.61039062 25.25132813 5.123125 23.98828125 4.62109375 C18.045821 2.64686219 12.35210667 2.65598561 6.140625 2.72265625 C5.05587891 2.71105469 3.97113281 2.69945312 2.85351562 2.6875 C-3.62230296 2.71109132 -8.38228666 3.47634263 -14.296875 6.09765625 C-15.6240927 6.4545625 -16.95645448 6.79407477 -18.296875 7.09765625 C-18.296875 6.43765625 -18.296875 5.77765625 -18.296875 5.09765625 C-17.04951933 4.44673035 -15.79885668 3.80213956 -14.546875 3.16015625 C-13.85078125 2.80050781 -13.1546875 2.44085938 -12.4375 2.0703125 C-8.24925367 0.16725897 -4.58830801 -0.02164296 0 0 Z " fill="#FDEAC9" transform="translate(1160.296875,424.90234375)"/>
<path d="M0 0 C1.89213369 2.38573379 3.02391783 4.07175348 4 7 C-23.39 7 -50.78 7 -79 7 C-79 6.67 -79 6.34 -79 6 C-78.05452805 5.98969254 -77.10905609 5.97938507 -76.13493347 5.96876526 C-67.23253628 5.87108486 -58.33020981 5.76835583 -49.42792797 5.66066074 C-44.85098367 5.6054542 -40.27403295 5.55203778 -35.69702148 5.50268555 C-31.28144544 5.4550086 -26.86594732 5.4026645 -22.45046425 5.34705925 C-20.76435596 5.32665081 -19.07822631 5.30793522 -17.39208031 5.29092598 C-15.03368779 5.26684855 -12.6754424 5.23679855 -10.31713867 5.20532227 C-9.61726837 5.1995668 -8.91739807 5.19381134 -8.19631958 5.18788147 C-5.19306117 5.14220346 -2.87375125 4.95791708 0 4 C0 2.68 0 1.36 0 0 Z " fill="#1F2B47" transform="translate(386,487)"/>
<path d="M0 0 C12.36206799 1.5723683 23.60945599 10.38674391 31.125 20 C32.09582815 21.32426329 33.05920842 22.65423191 34 24 C33.34 25.32 32.68 26.64 32 28 C31.67 27.01 31.34 26.02 31 25 C30.34 24.67 29.68 24.34 29 24 C28.375 21.4375 28.375 21.4375 28 19 C27.01 18.67 26.02 18.34 25 18 C24.71125 17.195625 24.4225 16.39125 24.125 15.5625 C23.25801102 12.84602568 23.25801102 12.84602568 20.875 11.9375 C19.92625 11.628125 18.9775 11.31875 18 11 C16.57271686 10.35637609 15.15639352 9.68807425 13.75 9 C13.06421875 8.67 12.3784375 8.34 11.671875 8 C10 7 10 7 9 5 C8.01 5 7.02 5 6 5 C2.8125 3.0625 2.8125 3.0625 0 1 C0 0.67 0 0.34 0 0 Z " fill="#1A2744" transform="translate(332,362)"/>
<path d="M0 0 C0.33 0 0.66 0 1 0 C1 7.92 1 15.84 1 24 C9.04474535 21.41418899 16.53075053 18.95430854 24 15 C24.66 15 25.32 15 26 15 C26 15.66 26 16.32 26 17 C24.28515625 18.25390625 24.28515625 18.25390625 22.0625 19.5625 C19.37294547 21.0750407 19.37294547 21.0750407 17 23 C14.32941149 23.14115161 11.67567762 23.04247107 9 23 C9 23.66 9 24.32 9 25 C5.7 25 2.4 25 -1 25 C-1.11039334 16.59784035 -0.95458649 8.35263176 0 0 Z " fill="#FCE1BB" transform="translate(1139,524)"/>
<path d="M0 0 C0.99 0 1.98 0 3 0 C1.89794164 8.81646689 -3.4990844 16.19742494 -10 22 C-12.25 22.75390625 -12.25 22.75390625 -14 23 C-14 22.01 -14 21.02 -14 20 C-12.5771459 18.88204321 -11.15363087 17.76491601 -9.7265625 16.65234375 C-5.0889364 12.21407262 -2.2447786 5.92960386 0 0 Z " fill="#142344" transform="translate(305,315)"/>
<path d="M0 0 C5.28932451 0.56111399 9.2816256 2.35378839 13.9375 4.75 C14.95360352 5.25273437 14.95360352 5.25273437 15.99023438 5.765625 C20.66041121 8.12981807 24.80422423 10.87094689 29 14 C28.34 14.66 27.68 15.32 27 16 C25.68 15.34 24.36 14.68 23 14 C23 13.34 23 12.68 23 12 C22.4225 11.855625 21.845 11.71125 21.25 11.5625 C19.16666667 11.04166667 17.08333333 10.52083333 15 10 C14.67 8.68 14.34 7.36 14 6 C12.453125 5.814375 12.453125 5.814375 10.875 5.625 C7.34117741 5.05502861 4.2871034 4.4087586 1 3 C0.67 2.01 0.34 1.02 0 0 Z " fill="#172644" transform="translate(846,232)"/>
<path d="M0 0 C0.33 0 0.66 0 1 0 C1.85754173 24.71039466 1.85754173 24.71039466 -3 34 C-3.66 34.66 -4.32 35.32 -5 36 C-4.25166929 27.63051177 -3.14302815 19.3230205 -2 11 C-1.67 11 -1.34 11 -1 11 C-0.67 7.37 -0.34 3.74 0 0 Z " fill="#112040" transform="translate(381,287)"/>
<path d="M0 0 C0 6.27 0 12.54 0 19 C-1.98 19.99 -1.98 19.99 -4 21 C-3.67 15.72 -3.34 10.44 -3 5 C-4.32 5.33 -5.64 5.66 -7 6 C-7.66 5.34 -8.32 4.68 -9 4 C-2.25 0 -2.25 0 0 0 Z " fill="#2A344E" transform="translate(822,429)"/>
<path d="M0 0 C-6.00897231 6.84411762 -16.42467092 9.83719576 -25 12 C-25.33 11.01 -25.66 10.02 -26 9 C-25.26136719 8.78085937 -24.52273438 8.56171875 -23.76171875 8.3359375 C-17.08295455 6.24829329 -11.26389462 3.70482889 -5.27734375 0.07421875 C-3 -1 -3 -1 0 0 Z " fill="#192949" transform="translate(868,365)"/>
<path d="M0 0 C0.99 0.66 1.98 1.32 3 2 C3.22107787 4.7885289 3.28107535 7.34653181 3.1875 10.125 C3.17396484 10.87910156 3.16042969 11.63320313 3.14648438 12.41015625 C3.11109985 14.27374127 3.05729167 16.13695978 3 18 C-0.3 19.65 -3.6 21.3 -7 23 C-6.67 21.68 -6.34 20.36 -6 19 C-4.68 18.67 -3.36 18.34 -2 18 C-2 17.34 -2 16.68 -2 16 C-1.34 16 -0.68 16 0 16 C-0.08378906 15.01257813 -0.16757812 14.02515625 -0.25390625 13.0078125 C-0.40666016 11.08582031 -0.40666016 11.08582031 -0.5625 9.125 C-0.66691406 7.84882813 -0.77132812 6.57265625 -0.87890625 5.2578125 C-1 2 -1 2 0 0 Z " fill="#1F2D49" transform="translate(891,451)"/>
<path d="M0 0 C0.99 0.33 1.98 0.66 3 1 C-2.21256119 7.42562266 -7.37698477 12.6798181 -14.375 17.125 C-14.96941895 17.50261475 -15.56383789 17.88022949 -16.17626953 18.26928711 C-19.04863378 20.02226813 -21.65613608 21.45641621 -25 22 C-24.34 20.68 -23.68 19.36 -23 18 C-21.68 18 -20.36 18 -19 18 C-19 17.34 -19 16.68 -19 16 C-17.68 16 -16.36 16 -15 16 C-15 15.01 -15 14.02 -15 13 C-13.68 12.67 -12.36 12.34 -11 12 C-11 11.34 -11 10.68 -11 10 C-8.36107824 8.21694476 -6.02821137 7.00940379 -3 6 C-2.26676204 3.98491642 -2.26676204 3.98491642 -2 2 C-1.34 2 -0.68 2 0 2 C0 1.34 0 0.68 0 0 Z " fill="#E68F2A" transform="translate(1184,519)"/>
<path d="M0 0 C2 1 2 1 3.109375 3.4140625 C4.2793134 8.12460394 4.29084933 12.54116203 4.25 17.375 C4.25773437 18.2825 4.26546875 19.19 4.2734375 20.125 C4.23412663 33.76587337 4.23412663 33.76587337 0 38 C0.165 36.7625 0.33 35.525 0.5 34.25 C1.04763237 28.78932291 1.11291914 23.35769636 1.125 17.875 C1.12951172 17.0284082 1.13402344 16.18181641 1.13867188 15.30957031 C1.12652842 10.11824424 0.74753649 5.13783017 0 0 Z " fill="#FEEFD7" transform="translate(1201,449)"/>
<path d="M0 0 C1.02158203 0.00322266 2.04316406 0.00644531 3.09570312 0.00976562 C4.15080078 0.01814453 5.20589844 0.02652344 6.29296875 0.03515625 C7.36740234 0.03966797 8.44183594 0.04417969 9.54882812 0.04882812 C12.19276558 0.06057896 14.83658827 0.07700838 17.48046875 0.09765625 C17.48046875 0.42765625 17.48046875 0.75765625 17.48046875 1.09765625 C16.55935303 1.1116748 16.55935303 1.1116748 15.61962891 1.12597656 C12.78082442 1.18035366 9.94355143 1.26386177 7.10546875 1.34765625 C6.13996094 1.36183594 5.17445312 1.37601562 4.1796875 1.390625 C-4.51808055 1.68249641 -12.05850226 3.42081958 -18.45703125 9.59765625 C-20.63245605 11.98344052 -22.70172707 14.42441481 -24.51953125 17.09765625 C-24.51953125 15.44765625 -24.51953125 13.79765625 -24.51953125 12.09765625 C-23.85953125 12.09765625 -23.19953125 12.09765625 -22.51953125 12.09765625 C-22.51953125 11.43765625 -22.51953125 10.77765625 -22.51953125 10.09765625 C-21.85953125 10.09765625 -21.19953125 10.09765625 -20.51953125 10.09765625 C-20.51953125 9.10765625 -20.51953125 8.11765625 -20.51953125 7.09765625 C-19.52953125 7.09765625 -18.53953125 7.09765625 -17.51953125 7.09765625 C-17.51953125 6.10765625 -17.51953125 5.11765625 -17.51953125 4.09765625 C-11.54864682 1.40490445 -6.62718548 -0.03702338 0 0 Z " fill="#FDE2B9" transform="translate(1157.51953125,305.90234375)"/>
<path d="M0 0 C2.31 0 4.62 0 7 0 C7 0.66 7 1.32 7 2 C7.59683594 2.26167969 8.19367188 2.52335937 8.80859375 2.79296875 C13.74406858 5.51143884 17.51963425 11.03926849 20 16 C20 16.99 20 17.98 20 19 C19.01 19 18.02 19 17 19 C16.74347656 18.443125 16.48695313 17.88625 16.22265625 17.3125 C12.40607954 9.70504743 7.03926078 4.69284052 0 0 Z " fill="#172345" transform="translate(286,254)"/>
<path d="M0 0 C0.33 0 0.66 0 1 0 C1.18175781 0.96679688 1.36351562 1.93359375 1.55078125 2.9296875 C2.98850273 10.42686023 4.5916427 17.740767 7 25 C6.34 25.66 5.68 26.32 5 27 C1.02360044 18.83486887 -1.56321241 11.19913595 -1 2 C-0.67 1.34 -0.34 0.68 0 0 Z " fill="#1A2948" transform="translate(378,459)"/>
<path d="M0 0 C3.5999398 1.19997993 4.35539539 2.65893953 6.08203125 5.93359375 C9.72111861 14.12541167 10.93297468 25.43898055 7.984375 33.921875 C7.65953125 34.60765625 7.3346875 35.2934375 7 36 C5.93511158 32.81346367 5.99226668 29.89986566 6.11572266 26.56738281 C6.45614569 16.76227298 4.54690272 8.76610073 0 0 Z " fill="#FEF1D8" transform="translate(1196,317)"/>
<path d="M0 0 C2.5636947 0.28318132 5.12561526 0.57622493 7.6875 0.875 C8.40873047 0.95363281 9.12996094 1.03226563 9.87304688 1.11328125 C13.88515932 1.5896051 17.29975512 2.26300142 21 4 C21 4.33 21 4.66 21 5 C2.685 4.505 2.685 4.505 -16 4 C-16 3.67 -16 3.34 -16 3 C-8.08 2.505 -8.08 2.505 0 2 C0 1.34 0 0.68 0 0 Z " fill="#2B3957" transform="translate(265,247)"/>
<path d="M0 0 C4.23680777 0.24922399 6.4538651 0.5407502 9.75 3.3125 C19 14.36111111 19 14.36111111 19 19 C18.01 19 17.02 19 16 19 C14.67578125 17.05859375 14.67578125 17.05859375 13.3125 14.4375 C10.30406064 9.12183646 6.73785898 5.75614045 2 2 C1.34 1.34 0.68 0.68 0 0 Z " fill="#192747" transform="translate(801,254)"/>
<path d="M0 0 C0.33 1.32 0.66 2.64 1 4 C-2.72965139 6.03435531 -4.66905042 7 -9 7 C-9.33 10.96 -9.66 14.92 -10 19 C-10.33 19 -10.66 19 -11 19 C-11.33 20.65 -11.66 22.3 -12 24 C-12.33 24 -12.66 24 -13 24 C-13 18.39 -13 12.78 -13 7 C-8.71 4.69 -4.42 2.38 0 0 Z " fill="#323E58" transform="translate(792,445)"/>
<path d="M0 0 C4.78912531 0.71104917 6.4166814 3.45772189 9.1796875 7.18359375 C17.43775813 19.96056569 17.43775813 19.96056569 16.65625 25.38671875 C16.4396875 25.91910156 16.223125 26.45148438 16 27 C15.34 26.67 14.68 26.34 14 26 C13.5078125 24.1796875 13.5078125 24.1796875 13.125 21.875 C11.80459654 15.38645486 9.08157078 10.40402801 4 6 C3.34 5.67 2.68 5.34 2 5 C1.27840576 3.35636866 0.60648579 1.68949614 0 0 Z " fill="#1C2842" transform="translate(877,251)"/>
<path d="M0 0 C2.6274838 1.28680869 5.25196683 2.57917678 7.875 3.875 C8.62136719 4.23980469 9.36773438 4.60460937 10.13671875 4.98046875 C10.85214844 5.33496094 11.56757812 5.68945312 12.3046875 6.0546875 C12.96452637 6.37937012 13.62436523 6.70405273 14.30419922 7.03857422 C16 8 16 8 18 10 C11.49200879 9.00481422 6.5332147 7.60861828 1 4 C1.14076315 5.9587043 1.2877676 7.91696093 1.4375 9.875 C1.51871094 10.96554687 1.59992187 12.05609375 1.68359375 13.1796875 C1.83001703 15.94728971 1.83001703 15.94728971 3 18 C2.01 17.67 1.02 17.34 0 17 C0 11.39 0 5.78 0 0 Z " fill="#1C2A48" transform="translate(853,430)"/>
<path d="M0 0 C8.2364936 1.79625658 16.58388879 3.8701452 24 8 C24.33 8.99 24.66 9.98 25 11 C24.01 11 23.02 11 22 11 C22 10.34 22 9.68 22 9 C21.29875 9.061875 20.5975 9.12375 19.875 9.1875 C16.34739788 8.95743899 14.06015649 7.70799432 11 6 C11 5.34 11 4.68 11 4 C7.37 3.67 3.74 3.34 0 3 C0 2.01 0 1.02 0 0 Z " fill="#12203F" transform="translate(320,229)"/>
<path d="M0 0 C4.43599987 3.93896907 5.68521035 9.15861236 6.16113281 14.96630859 C6.25920853 17.1046565 6.30205366 19.23447286 6.3125 21.375 C6.31789795 22.06489014 6.3232959 22.75478027 6.32885742 23.46557617 C6.27603585 27.21958223 5.79917174 29.73830174 4 33 C3.97812622 32.0553186 3.97812622 32.0553186 3.95581055 31.09155273 C3.88081006 28.20628679 3.78432361 25.32211277 3.6875 22.4375 C3.66494141 21.44685547 3.64238281 20.45621094 3.61914062 19.43554688 C3.40187598 13.49039601 2.56468792 9.34252684 0 4 C0 2.68 0 1.36 0 0 Z " fill="#E29D56" transform="translate(1197,320)"/>
<path d="M0 0 C0.33 6.27 0.66 12.54 1 19 C-0.32 19.33 -1.64 19.66 -3 20 C-3 13.73 -3 7.46 -3 1 C-1 0 -1 0 0 0 Z " fill="#3D465E" transform="translate(854,472)"/>
<path d="M0 0 C3.12290635 0.48578543 5.99580359 0.9986012 9 2 C12.85001028 2.23449239 16.70610717 2.18518663 20.5625 2.1875 C21.60986328 2.19974609 22.65722656 2.21199219 23.73632812 2.22460938 C30.39839156 2.23703087 36.52867779 1.59323249 43 0 C42 2 42 2 39.89453125 3.10400391 C34.5029697 4.77295051 28.82554992 4.37184605 23.22558594 4.37060547 C21.00638558 4.37498739 18.7891627 4.41136951 16.5703125 4.44921875 C15.15104842 4.45508629 13.73177496 4.4590561 12.3125 4.4609375 C10.38857422 4.47326416 10.38857422 4.47326416 8.42578125 4.48583984 C4.48022597 3.92628632 2.83149629 2.73201495 0 0 Z " fill="#F68B14" transform="translate(1143,369)"/>
<path d="M0 0 C0.33 0 0.66 0 1 0 C1.39264798 9.96162471 1.64453778 19.68938781 -4.1875 28.1875 C-5.0846875 29.0846875 -5.0846875 29.0846875 -6 30 C-6.25 23.375 -6.25 23.375 -4 20 C-3.34 20 -2.68 20 -2 20 C-2.01160156 19.36191406 -2.02320313 18.72382813 -2.03515625 18.06640625 C-2.04869141 16.82697266 -2.04869141 16.82697266 -2.0625 15.5625 C-2.07410156 14.73878906 -2.08570313 13.91507812 -2.09765625 13.06640625 C-2 11 -2 11 -1 10 C-0.76712992 8.31816052 -0.58735834 6.6287584 -0.4375 4.9375 C-0.35371094 4.01839844 -0.26992187 3.09929687 -0.18359375 2.15234375 C-0.12300781 1.44207031 -0.06242187 0.73179687 0 0 Z " fill="#E78B22" transform="translate(1199,479)"/>
<path d="M0 0 C1 2 1 2 0.5 4.125 C-2.45322112 9.78534047 -7.02406866 15.43888657 -13 18 C-13.66 17.67 -14.32 17.34 -15 17 C-14.360625 16.7525 -13.72125 16.505 -13.0625 16.25 C-12.0415625 15.63125 -12.0415625 15.63125 -11 15 C-10.855625 14.38125 -10.71125 13.7625 -10.5625 13.125 C-9.73021416 9.98080905 -7.51965078 9.00426766 -5 7 C-3.19824796 4.73926506 -1.61658157 2.40177833 0 0 Z " fill="#EA8C21" transform="translate(1157,507)"/>
<path d="M0 0 C-5.75 5 -5.75 5 -8 5 C-7.98839844 5.66644531 -7.97679687 6.33289063 -7.96484375 7.01953125 C-7.89902634 13.74230945 -8.27616361 20.317439 -9 27 C-9.33 27 -9.66 27 -10 27 C-10.02909763 23.75001888 -10.04683161 20.50007143 -10.0625 17.25 C-10.07087891 16.32960938 -10.07925781 15.40921875 -10.08789062 14.4609375 C-10.09111328 13.57148437 -10.09433594 12.68203125 -10.09765625 11.765625 C-10.10289307 10.94868164 -10.10812988 10.13173828 -10.11352539 9.29003906 C-10.00299021 7.06031865 -9.62055567 5.13866245 -9 3 C-8.34 3 -7.68 3 -7 3 C-7 2.34 -7 1.68 -7 1 C-3.375 -1.125 -3.375 -1.125 0 0 Z " fill="#FEFBEC" transform="translate(1147,519)"/>
<path d="M0 0 C0.33 0 0.66 0 1 0 C1.12375 1.134375 1.2475 2.26875 1.375 3.4375 C1.58125 4.613125 1.7875 5.78875 2 7 C2.66 7.33 3.32 7.66 4 8 C4 12.95 4 17.9 4 23 C3.01 23 2.02 23 1 23 C-0.0176403 17.98391475 -0.11856434 13.21391694 -0.0625 8.125 C-0.05798828 7.34125 -0.05347656 6.5575 -0.04882812 5.75 C-0.03714093 3.83329986 -0.01920908 1.91663952 0 0 Z " fill="#3F4C68" transform="translate(299,442)"/>
<path d="M0 0 C2.90326949 2.90326949 2.792096 6.07166602 3 10 C2.97355887 13.50921245 2.78390436 16.9982483 2.5625 20.5 C2.51029297 21.4178125 2.45808594 22.335625 2.40429688 23.28125 C2.2759611 25.52129261 2.14107403 27.76072975 2 30 C1.67 30 1.34 30 1 30 C0.92652344 28.36804688 0.92652344 28.36804688 0.8515625 26.703125 C0.42226648 18.00913695 -0.30157533 9.5580816 -2 1 C-1.34 0.67 -0.68 0.34 0 0 Z " fill="#0C193B" transform="translate(307,276)"/>
<path d="M0 0 C7.425 0.99 7.425 0.99 15 2 C13.19961464 7.85125242 11.21281482 12.79302425 8 18 C7.67 18 7.34 18 7 18 C6.79913557 14.28400809 6.8480563 13.22791555 9 10 C9.66 10 10.32 10 11 10 C11.33 7.69 11.66 5.38 12 3 C8.04 2.67 4.08 2.34 0 2 C0 1.34 0 0.68 0 0 Z " fill="#FEE9C1" transform="translate(1148,492)"/>
<path d="M0 0 C0 0.66 0 1.32 0 2 C-0.99 2 -1.98 2 -3 2 C-3.66 3.32 -4.32 4.64 -5 6 C-13.91 6 -22.82 6 -32 6 C-32 5.67 -32 5.34 -32 5 C-30.81664062 4.96261719 -29.63328125 4.92523438 -28.4140625 4.88671875 C-18.87888835 4.51563752 -8.8039065 0 0 0 Z " fill="#FEE9C3" transform="translate(1190,370)"/>
<path d="M0 0 C2.80212824 1.67663574 3.87919829 2.68992775 5.08203125 5.77734375 C5.32308594 6.82019531 5.56414062 7.86304688 5.8125 8.9375 C6.06644531 9.97777344 6.32039063 11.01804687 6.58203125 12.08984375 C6.97699345 14.83981423 6.91515621 16.41639574 6 19 C3 17 3 17 2.05078125 13.84765625 C1.80714844 12.59855469 1.56351562 11.34945313 1.3125 10.0625 C1.06113281 8.81597656 0.80976563 7.56945312 0.55078125 6.28515625 C0 3 0 3 0 0 Z " fill="#212F4E" transform="translate(366,393)"/>
<path d="M0 0 C25.2987013 -0.46753247 25.2987013 -0.46753247 32 4 C27.25359309 5.01708719 22.67348762 5.61287868 18.3359375 2.99609375 C14.90582037 1.53341838 11.42589513 1.53086834 7.75 1.375 C7.00492188 1.33632813 6.25984375 1.29765625 5.4921875 1.2578125 C3.6618476 1.16394892 1.83095857 1.08090282 0 1 C0 0.67 0 0.34 0 0 Z " fill="#18284C" transform="translate(247,362)"/>
<path d="M0 0 C0.33 0 0.66 0 1 0 C1 7.59 1 15.18 1 23 C0.01 22.67 -0.98 22.34 -2 22 C-2.05807043 18.89591193 -2.09361914 15.7919636 -2.125 12.6875 C-2.14175781 11.80642578 -2.15851563 10.92535156 -2.17578125 10.01757812 C-2.18222656 9.17001953 -2.18867188 8.32246094 -2.1953125 7.44921875 C-2.20578613 6.66893311 -2.21625977 5.88864746 -2.22705078 5.0847168 C-2 3 -2 3 0 0 Z " fill="#2F3B5B" transform="translate(309,286)"/>
<path d="M0 0 C4.5554179 3.57925692 6.37092014 8.59284133 8 14 C8 15.32 8 16.64 8 18 C7.34 18 6.68 18 6 18 C6 16.68 6 15.36 6 14 C5.34 14 4.68 14 4 14 C3.67 11.36 3.34 8.72 3 6 C2.34 6 1.68 6 1 6 C0.67 4.02 0.34 2.04 0 0 Z " fill="#E5933A" transform="translate(1194,437)"/>
<path d="M0 0 C1.77504706 3.04120692 2.21305767 5.04674654 1.9765625 8.546875 C1.925 9.39121094 1.8734375 10.23554688 1.8203125 11.10546875 C1.75585938 11.97816406 1.69140625 12.85085938 1.625 13.75 C1.56828125 14.63816406 1.5115625 15.52632813 1.453125 16.44140625 C1.31202454 18.62846332 1.1606567 20.8143069 1 23 C0.67 23 0.34 23 0 23 C-0.90620536 18.36828372 -1.1343209 13.96637727 -1.125 9.25 C-1.12757813 7.93515625 -1.13015625 6.6203125 -1.1328125 5.265625 C-1 2 -1 2 0 0 Z " fill="#202F50" transform="translate(380,277)"/>
<path d="M0 0 C1.32 0.33 2.64 0.66 4 1 C3.54109375 1.46148437 3.0821875 1.92296875 2.609375 2.3984375 C-2.18842589 7.4986208 -4.81240713 12.36928372 -7 19 C-7.33 19 -7.66 19 -8 19 C-7.505 14.545 -7.505 14.545 -7 10 C-6.34 10 -5.68 10 -5 10 C-4.67 8.35 -4.34 6.7 -4 5 C-3.01 4.67 -2.02 4.34 -1 4 C-0.26676204 1.98491642 -0.26676204 1.98491642 0 0 Z " fill="#FEF0D5" transform="translate(1138,432)"/>
<path d="M0 0 C5.01202555 2.98334854 8.38748484 6.43951988 12 11 C10.68 11.33 9.36 11.66 8 12 C5 8.25 5 8.25 5 6 C4.38125 5.690625 3.7625 5.38125 3.125 5.0625 C1.75 4.375 0.375 3.6875 -1 3 C-0.67 2.01 -0.34 1.02 0 0 Z " fill="#1C2A47" transform="translate(358,246)"/>
<path d="M0 0 C3.9745504 0.69849772 7.26574098 2.62892769 10.75 4.5625 C11.65298828 5.0565332 11.65298828 5.0565332 12.57421875 5.56054688 C14.05170503 6.3696465 15.52616036 7.18427662 17 8 C17 8.33 17 8.66 17 9 C10.35426532 8.71105501 5.27933586 6.00464712 0 2 C0 1.34 0 0.68 0 0 Z " fill="#1D2A46" transform="translate(802,463)"/>
<path d="M0 0 C5.55320526 0.67722015 10.81891312 1.88927077 14.9375 5.875 C16.20740557 8.41481113 16.23366867 10.19597598 16 13 C15.34 12.29875 14.68 11.5975 14 10.875 C9.8055092 6.66852494 4.92959636 3.28639758 0 0 Z " fill="#1E2846" transform="translate(276,367)"/>
<path d="M0 0 C0.86671772 3.16337376 0.99470854 5.4844244 0.5625 8.75 C0.40974609 9.94882812 0.40974609 9.94882812 0.25390625 11.171875 C0.12822266 12.07679688 0.12822266 12.07679688 0 13 C-0.66 13 -1.32 13 -2 13 C-2 17.29 -2 21.58 -2 26 C-2.33 26 -2.66 26 -3 26 C-3.08174796 23.16607074 -3.14084985 20.33455181 -3.1875 17.5 C-3.21263672 16.70851563 -3.23777344 15.91703125 -3.26367188 15.1015625 C-3.33403498 9.37869682 -2.29297398 5.24796143 0 0 Z " fill="#E99A48" transform="translate(1133,323)"/>
<path d="M0 0 C3.95099928 -0.0246985 7.90196874 -0.04285923 11.85302734 -0.05493164 C13.85906551 -0.06244036 15.86508202 -0.0751447 17.87109375 -0.08789062 C19.75634766 -0.09272461 19.75634766 -0.09272461 21.6796875 -0.09765625 C23.42354736 -0.10551147 23.42354736 -0.10551147 25.20263672 -0.11352539 C28 0 28 0 30 1 C30 1.66 30 2.32 30 3 C28.63681641 2.76990234 28.63681641 2.76990234 27.24609375 2.53515625 C21.87832287 1.76833184 16.47511384 1.64244689 11.0625 1.4375 C9.99708984 1.39431641 8.93167969 1.35113281 7.83398438 1.30664062 C5.22276557 1.20125511 2.61146254 1.09912912 0 1 C0 0.67 0 0.34 0 0 Z " fill="#FEF5DD" transform="translate(1152,305)"/>
<path d="M0 0 C0.33 0 0.66 0 1 0 C1.31563182 5.26053037 0.66590937 8.44573816 -2 13 C-2.99 13 -3.98 13 -5 13 C-4.34259641 10.18707119 -3.51469937 7.51667383 -2.5 4.8125 C-2.11328125 3.77029297 -2.11328125 3.77029297 -1.71875 2.70703125 C-1 1 -1 1 0 0 Z " fill="#EB8B24" transform="translate(1200,349)"/>
<path d="M0 0 C0 0.66 0 1.32 0 2 C-6.93 5.465 -6.93 5.465 -14 9 C-14 8.01 -14 7.02 -14 6 C-11.953125 4.39453125 -11.953125 4.39453125 -9.25 2.8125 C-8.36828125 2.28269531 -7.4865625 1.75289063 -6.578125 1.20703125 C-4 0 -4 0 0 0 Z " fill="#1A2844" transform="translate(814,451)"/>
<path d="M0 0 C-0.33 0.66 -0.66 1.32 -1 2 C-7.35987804 2.20190089 -12.85221129 1.6277833 -19 0 C-19 -0.33 -19 -0.66 -19 -1 C-12.39144296 -2.48692533 -6.56034424 -1.4350753 0 0 Z " fill="#1D2C4A" transform="translate(844,230)"/>
<path d="M0 0 C0 0.66 0 1.32 0 2 C-1.71484375 3.25390625 -1.71484375 3.25390625 -3.9375 4.5625 C-6.62705453 6.0750407 -6.62705453 6.0750407 -9 8 C-10.66617115 8.04063832 -12.33388095 8.042721 -14 8 C-10.67417683 4.11987297 -5.34770586 0 0 0 Z " fill="#FDEDCF" transform="translate(1165,539)"/>
<path d="M0 0 C0.33 0.99 0.66 1.98 1 3 C-1.60213075 7.39231845 -5.00076875 10.67667408 -10 12 C-9.61328125 11.55269531 -9.2265625 11.10539063 -8.828125 10.64453125 C-5.81609925 7.1478974 -2.85678969 3.62592537 0 0 Z " fill="#FDF1D4" transform="translate(1187,519)"/>
<path d="M0 0 C0.33 0 0.66 0 1 0 C1.37711099 6.15947951 1.00477144 10.54689627 -2 16 C-2.99 16.66 -3.98 17.32 -5 18 C-3.36959185 11.98922864 -1.72852643 5.98336072 0 0 Z " fill="#FCE7C7" transform="translate(1200,489)"/>
<path d="M0 0 C4.54385965 -0.36842105 4.54385965 -0.36842105 6.625 1.3125 C7.07875 1.869375 7.5325 2.42625 8 3 C8.556875 3.556875 9.11375 4.11375 9.6875 4.6875 C10.3371875 5.3371875 10.3371875 5.3371875 11 6 C10.67 6.66 10.34 7.32 10 8 C8.32819726 7.05065487 6.66266064 6.09026687 5 5.125 C4.071875 4.59132813 3.14375 4.05765625 2.1875 3.5078125 C1.465625 3.01023437 0.74375 2.51265625 0 2 C0 1.34 0 0.68 0 0 Z " fill="#1A2744" transform="translate(862,452)"/>
<path d="M0 0 C2.31 0 4.62 0 7 0 C7 0.66 7 1.32 7 2 C8.32 2.66 9.64 3.32 11 4 C11 5.32 11 6.64 11 8 C10.45730469 7.59007812 9.91460937 7.18015625 9.35546875 6.7578125 C8.64003906 6.21898437 7.92460937 5.68015625 7.1875 5.125 C6.47980469 4.59132813 5.77210938 4.05765625 5.04296875 3.5078125 C3.39543703 2.29185219 1.70375789 1.13583859 0 0 Z " fill="#212D4B" transform="translate(286,254)"/>
<path d="M0 0 C0.99 0.33 1.98 0.66 3 1 C-0.3 4.63 -3.6 8.26 -7 12 C-7.33 11.01 -7.66 10.02 -8 9 C-6.625 7.5 -6.625 7.5 -5 6 C-4.34 6 -3.68 6 -3 6 C-2.67 4.68 -2.34 3.36 -2 2 C-1.34 2 -0.68 2 0 2 C0 1.34 0 0.68 0 0 Z " fill="#E4953A" transform="translate(1184,519)"/>
<path d="M0 0 C0.54527344 0.33773438 1.09054687 0.67546875 1.65234375 1.0234375 C7.08557253 4.23693692 11.78309179 5.91450809 18 7 C18 7.33 18 7.66 18 8 C10.99995111 7.71311275 6.08973134 6.49595688 0 3 C0 2.01 0 1.02 0 0 Z " fill="#FDEBCA" transform="translate(1139,367)"/>
<path d="M0 0 C0.99 0 1.98 0 3 0 C2.39301257 4.12751449 0.96189209 7.3321148 -1 11 C-2.1875 9.4375 -2.1875 9.4375 -3 7 C-1.625 3.25 -1.625 3.25 0 0 Z " fill="#1C2B4D" transform="translate(305,315)"/>
<path d="M0 0 C3.15330554 0.60694155 5.18888867 1.6416665 7.75 3.5625 C8.67039062 4.24505859 8.67039062 4.24505859 9.609375 4.94140625 C10.29773438 5.46541016 10.29773438 5.46541016 11 6 C10.34 6.66 9.68 7.32 9 8 C7.68 7.34 6.36 6.68 5 6 C5 5.34 5 4.68 5 4 C4.360625 3.896875 3.72125 3.79375 3.0625 3.6875 C2.381875 3.460625 1.70125 3.23375 1 3 C0.67 2.01 0.34 1.02 0 0 Z " fill="#1C2945" transform="translate(864,240)"/>
<path d="M0 0 C-1 3 -1 3 -3.28515625 4.38671875 C-4.20167969 4.81597656 -5.11820313 5.24523437 -6.0625 5.6875 C-6.98160156 6.12449219 -7.90070312 6.56148438 -8.84765625 7.01171875 C-9.55792969 7.33785156 -10.26820313 7.66398437 -11 8 C-10.6221946 5.56979231 -10.40389416 4.33554284 -8.4765625 2.734375 C-7.86554687 2.40953125 -7.25453125 2.0846875 -6.625 1.75 C-6.01914062 1.41484375 -5.41328125 1.0796875 -4.7890625 0.734375 C-3 0 -3 0 0 0 Z " fill="#1B2844" transform="translate(874,478)"/>
<path d="M0 0 C5.28798182 0.41474367 8.11690718 1.35224614 12 5 C10.68 5.33 9.36 5.66 8 6 C8 5.34 8 4.68 8 4 C7.4225 3.87625 6.845 3.7525 6.25 3.625 C3.97664233 2.99351176 2.0746471 2.11141809 0 1 C0 0.67 0 0.34 0 0 Z " fill="#1A2946" transform="translate(878,446)"/>
<path d="M0 0 C0.99 0.33 1.98 0.66 3 1 C0.42215154 3.64752004 -1.91648098 5.94432065 -5 8 C-5.66 7.34 -6.32 6.68 -7 6 C-5.90716423 4.96704564 -4.80029421 3.94892165 -3.6875 2.9375 C-3.07261719 2.36902344 -2.45773437 1.80054688 -1.82421875 1.21484375 C-0.92123047 0.61349609 -0.92123047 0.61349609 0 0 Z " fill="#1A2948" transform="translate(361,338)"/>
<path d="M0 0 C0.99 0 1.98 0 3 0 C1.84414715 3.91211733 0.64465038 6.8745041 -2 10 C-2.25 3.375 -2.25 3.375 0 0 Z " fill="#E99637" transform="translate(1195,499)"/>
<path d="M0 0 C0.33 0 0.66 0 1 0 C1.33 1.98 1.66 3.96 2 6 C2.33 6 2.66 6 3 6 C3 8.64 3 11.28 3 14 C2.01 14.495 2.01 14.495 1 15 C-0.09506492 11.71480525 -0.09960608 9.26336585 -0.0625 5.8125 C-0.05347656 4.72582031 -0.04445313 3.63914062 -0.03515625 2.51953125 C-0.02355469 1.68808594 -0.01195312 0.85664063 0 0 Z " fill="#0B1838" transform="translate(301,459)"/>
<path d="M0 0 C0.99 0 1.98 0 3 0 C2.67 4.95 2.34 9.9 2 15 C1.67 15 1.34 15 1 15 C0.15318867 9.91913204 -0.09038099 5.15171623 0 0 Z " fill="#1C2B4F" transform="translate(372,425)"/>
<path d="M0 0 C-1 2 -1 2 -3.28515625 2.8515625 C-4.20167969 3.10679687 -5.11820312 3.36203125 -6.0625 3.625 C-7.44115234 4.01558594 -7.44115234 4.01558594 -8.84765625 4.4140625 C-9.55792969 4.60742188 -10.26820313 4.80078125 -11 5 C-10.1875 3.0625 -10.1875 3.0625 -9 1 C-5.8035914 -0.06546953 -3.34252724 -0.07427838 0 0 Z " fill="#142242" transform="translate(345,351)"/>
<path d="M0 0 C3.25 0.125 3.25 0.125 7 1 C9.4375 4.0625 9.4375 4.0625 11 7 C6.69730048 7 5.1322623 4.7990429 2 2 C1.34 1.34 0.68 0.68 0 0 Z " fill="#263250" transform="translate(801,254)"/>
<path d="M0 0 C0.99 0 1.98 0 3 0 C1.6302836 3.99500618 -0.25722422 6.80009492 -3 10 C-3.36265043 5.76907828 -2.60250805 3.37362154 0 0 Z " fill="#E78F2C" transform="translate(1190,509)"/>
<path d="M0 0 C0.33 0 0.66 0 1 0 C1 4.62 1 9.24 1 14 C-1.475 13.01 -1.475 13.01 -4 12 C-4.33 11.01 -4.66 10.02 -5 9 C-3.68 9.33 -2.36 9.66 -1 10 C-0.67 6.7 -0.34 3.4 0 0 Z " fill="#212E4D" transform="translate(819,477)"/>
<path d="M0 0 C2.06339685 2.06339685 2.56591822 3.18443836 3.5 5.875 C4.50874589 8.69129562 5.5717097 11.36315637 7 14 C5 14 5 14 2.9375 12.0625 C0.41615945 8.07715526 0.20189657 4.63352621 0 0 Z " fill="#FDEBCA" transform="translate(1130,471)"/>
<path d="M0 0 C0.66 0.33 1.32 0.66 2 1 C2 1.66 2 2.32 2 3 C-1.96 4.98 -1.96 4.98 -6 7 C-6.99 6.34 -7.98 5.68 -9 5 C-8.071875 4.54625 -7.14375 4.0925 -6.1875 3.625 C-2.96078611 2.0578367 -2.96078611 2.0578367 0 0 Z " fill="#1C2A49" transform="translate(807,350)"/>
<path d="M0 0 C0.33 1.32 0.66 2.64 1 4 C-1.35171131 3.40138258 -3.6859378 2.73075648 -6 2 C-6.33 1.34 -6.66 0.68 -7 0 C-4.3333581 -1.33332095 -2.83319697 -0.67102033 0 0 Z " fill="#DEE4EC" transform="translate(334,358)"/>
<path d="M0 0 C1.40309836 3.18885991 0.90389952 4.25335581 -0.375 7.625 C-1.23999119 9.42152016 -2.10829439 11.21658879 -3 13 C-3.66 13 -4.32 13 -5 13 C-3.58192622 8.52761347 -1.88695626 4.28853694 0 0 Z " fill="#E39132" transform="translate(1163,494)"/>
<path d="M0 0 C3.10011632 2.53645881 4.0575938 5.15184135 5 9 C4.546875 11.19140625 4.546875 11.19140625 4 13 C3.32404685 11.58774074 2.65959941 10.16997095 2 8.75 C1.62875 7.96109375 1.2575 7.1721875 0.875 6.359375 C0 4 0 4 0 0 Z " fill="#E39139" transform="translate(1197,320)"/>
<path d="M0 0 C2.33294775 -0.04241723 4.66702567 -0.04092937 7 0 C8 1 8 1 8.0625 4.5625 C8.041875 5.696875 8.02125 6.83125 8 8 C7.01 8.495 7.01 8.495 6 9 C6 7.02 6 5.04 6 3 C4.02 2.34 2.04 1.68 0 1 C0 0.67 0 0.34 0 0 Z " fill="#F18812" transform="translate(1157,491)"/>
<path d="M0 0 C0.99 0 1.98 0 3 0 C1.34784004 3.57967992 -0.73124352 6.77982952 -3 10 C-3.33 10 -3.66 10 -4 10 C-4 8.35 -4 6.7 -4 5 C-3.34 5 -2.68 5 -2 5 C-2 4.34 -2 3.68 -2 3 C-1.34 3 -0.68 3 0 3 C0 2.01 0 1.02 0 0 Z " fill="#FEECCC" transform="translate(1137,313)"/>
<path d="M0 0 C4.95 0.99 4.95 0.99 10 2 C9.67 2.66 9.34 3.32 9 4 C6.03 3.67 3.06 3.34 0 3 C0 2.01 0 1.02 0 0 Z " fill="#1B2846" transform="translate(320,229)"/>
<path d="M0 0 C0.66 0.33 1.32 0.66 2 1 C-0.475 5.455 -0.475 5.455 -3 10 C-3.33 10 -3.66 10 -4 10 C-4.20086443 6.28400809 -4.1519437 5.22791555 -2 2 C-1.34 2 -0.68 2 0 2 C0 1.34 0 0.68 0 0 Z " fill="#FEEECD" transform="translate(1159,500)"/>
<path d="M0 0 C-4.625 4 -4.625 4 -8 4 C-8 3.01 -8 2.02 -8 1 C-3.375 -1.125 -3.375 -1.125 0 0 Z " fill="#1B2843" transform="translate(862,486)"/>
<path d="M0 0 C4.21912747 0.4794463 6.79663178 1.16625119 10 4 C7.03 3.67 4.06 3.34 1 3 C0.67 2.01 0.34 1.02 0 0 Z " fill="#111F3C" transform="translate(846,232)"/>
<path d="M0 0 C0 0.66 0 1.32 0 2 C-0.99 2 -1.98 2 -3 2 C-3.66 3.32 -4.32 4.64 -5 6 C-5.99 5.67 -6.98 5.34 -8 5 C-7.67 4.01 -7.34 3.02 -7 2 C-4.56723614 0.81480735 -2.71982714 0 0 0 Z " fill="#FCEDD2" transform="translate(1190,370)"/>
<path d="M0 0 C0.33 0.66 0.66 1.32 1 2 C1.99 2.33 2.98 2.66 4 3 C3.67 5.31 3.34 7.62 3 10 C1.11608215 6.73454239 0.50712033 3.71888239 0 0 Z " fill="#172748" transform="translate(376,271)"/>
<path d="M0 0 C1.65 0.33 3.3 0.66 5 1 C5 2.32 5 3.64 5 5 C3.02 4.01 1.04 3.02 -1 2 C-0.67 1.34 -0.34 0.68 0 0 Z " fill="#1C2A49" transform="translate(791,473)"/>
<path d="M0 0 C0.66 0.33 1.32 0.66 2 1 C2.59355614 3.64860427 2.74209269 6.29197322 3 9 C1.68 8.34 0.36 7.68 -1 7 C-0.67 4.69 -0.34 2.38 0 0 Z " fill="#313D58" transform="translate(370,403)"/>
<path d="M0 0 C2 3 2 3 1.8125 5 C0.90059285 7.24469451 -0.18533754 8.42203265 -2 10 C-1.54177532 6.53058454 -1.10868317 3.32604951 0 0 Z " fill="#19284A" transform="translate(817,334)"/>
<path d="M0 0 C0.99 0 1.98 0 3 0 C2.01 2.97 1.02 5.94 0 9 C-0.98150241 6.05549278 -1.1613058 4.06481021 -1 1 C-0.67 0.67 -0.34 0.34 0 0 Z " fill="#1F2C49" transform="translate(890,333)"/>
<path d="M0 0 C-2.31 1.65 -4.62 3.3 -7 5 C-7 3.68 -7 2.36 -7 1 C-3.375 -1.125 -3.375 -1.125 0 0 Z " fill="#FDEED1" transform="translate(1147,519)"/>
<path d="M0 0 C0.99 0.33 1.98 0.66 3 1 C0.94766315 3.2477975 -0.00667261 4.0022242 -3 5 C-3.66 4.34 -4.32 3.68 -5 3 C-2.6875 1.4375 -2.6875 1.4375 0 0 Z " fill="#1D2B46" transform="translate(880,473)"/>
<path d="M0 0 C0.66 0.66 1.32 1.32 2 2 C0.68 2.99 -0.64 3.98 -2 5 C-3.32 4.34 -4.64 3.68 -6 3 C-4.02 2.01 -2.04 1.02 0 0 Z " fill="#1D2B47" transform="translate(871,462)"/>
<path d="M0 0 C0.66 0 1.32 0 2 0 C2 1.98 2 3.96 2 6 C1.34 6 0.68 6 0 6 C-0.33 6.99 -0.66 7.98 -1 9 C-0.67 6.03 -0.34 3.06 0 0 Z " fill="#E78A28" transform="translate(1133,443)"/>
<path d="M0 0 C1.32 0.33 2.64 0.66 4 1 C1.60236815 3.39763185 0.66726502 3.34280586 -2.625 3.625 C-3.44226563 3.69976562 -4.25953125 3.77453125 -5.1015625 3.8515625 C-5.72804688 3.90054687 -6.35453125 3.94953125 -7 4 C-4 2 -4 2 0 2 C0 1.34 0 0.68 0 0 Z " fill="#121E3D" transform="translate(839,375)"/>
<path d="M0 0 C3.875 0.875 3.875 0.875 5 2 C5.04063832 3.66617115 5.042721 5.33388095 5 7 C3.29115995 5.37660195 1.62553283 3.70680947 0 2 C0 1.34 0 0.68 0 0 Z " fill="#25304F" transform="translate(287,373)"/>
<path d="M0 0 C3.12290635 0.48578543 5.99580359 0.9986012 9 2 C9 2.66 9 3.32 9 4 C3.46153846 3.38461538 3.46153846 3.38461538 1.125 1.4375 C0.75375 0.963125 0.3825 0.48875 0 0 Z " fill="#DF913A" transform="translate(1143,369)"/>
<path d="M0 0 C5.53846154 0.61538462 5.53846154 0.61538462 7.875 2.5625 C8.431875 3.2740625 8.431875 3.2740625 9 4 C8.34 4.66 7.68 5.32 7 6 C4.56070254 4.07423885 2.19909405 2.19909405 0 0 Z " fill="#14203D" transform="translate(332,362)"/>
<path d="M0 0 C0.78375 0.04125 1.5675 0.0825 2.375 0.125 C2.705 1.445 3.035 2.765 3.375 4.125 C0.735 3.465 -1.905 2.805 -4.625 2.125 C-2.625 0.125 -2.625 0.125 0 0 Z " fill="#202C4B" transform="translate(797.625,249.875)"/>
<path d="M0 0 C-0.66 1.65 -1.32 3.3 -2 5 C-2.99 5 -3.98 5 -5 5 C-4.625 3.0625 -4.625 3.0625 -4 1 C-2 0 -2 0 0 0 Z " fill="#E9902A" transform="translate(1146,431)"/>
</svg>
